# xmcd
#
# Track frame offsets: 
#        150
#        24777
#        49425
#
# Disc length: 912 seconds
#
# Revision: 0
# Processed by: cddbd v1.5.2PL0 Copyright (c) Steve Scherf et al.
# Submitted via: ExactAudioCopyFreeDBPlugin 1.0
#
DISCID=1c038e03
DTITLE=Joey B. Ellis & Tynetta Hare / Go for it
DYEAR=1991
DGENRE=Pop
TTITLE0=Go for it (Heart and Fire - Vocal Mix)
TTITLE1=Go for it (Heart and Fire - Instrumental)
TTITLE2=Go for it (Heart and Fire - LP Version)
EXTD=
EXTT0=
EXTT1=
EXTT2=
PLAYORDER=
